<?xml version="1.0" encoding="UTF-8"?>
<svg id="Layer_1" xmlns="http://www.w3.org/2000/svg" xmlns:xlink="http://www.w3.org/1999/xlink" viewBox="0 0 528.97 314.43">
  <defs>
    <style>
      .cls-1 {
        fill: url(#linear-gradient-11);
        stroke: url(#New_Gradient_Swatch_3);
        stroke-miterlimit: 10;
        stroke-width: .5px;
      }

      .cls-2 {
        fill: url(#linear-gradient-2);
      }

      .cls-3 {
        fill: url(#linear-gradient-10);
      }

      .cls-4 {
        fill: #fff;
      }

      .cls-5 {
        fill: url(#linear-gradient-4);
      }

      .cls-6 {
        fill: url(#linear-gradient-3);
      }

      .cls-7 {
        fill: url(#linear-gradient-5);
      }

      .cls-8 {
        fill: url(#linear-gradient-8);
      }

      .cls-9 {
        fill: url(#linear-gradient-7);
      }

      .cls-10 {
        fill: url(#linear-gradient-9);
      }

      .cls-11 {
        fill: url(#linear-gradient-6);
      }

      .cls-12 {
        fill: url(#linear-gradient);
      }
    </style>
    <linearGradient id="linear-gradient" x1="140.98" y1="122.84" x2="388.52" y2="122.84" gradientUnits="userSpaceOnUse">
      <stop offset="0" stop-color="#5b5c5c"/>
      <stop offset="1" stop-color="#5b5c5b"/>
    </linearGradient>
    <linearGradient id="linear-gradient-2" x1="132.57" y1="79.16" x2="401.87" y2="79.16" gradientUnits="userSpaceOnUse">
      <stop offset="0" stop-color="#f9dd7b"/>
      <stop offset=".53" stop-color="#f3b735"/>
      <stop offset="1" stop-color="#f2b227"/>
    </linearGradient>
    <linearGradient id="linear-gradient-3" x1="127.4" y1="163.48" x2="396.37" y2="163.48" gradientUnits="userSpaceOnUse">
      <stop offset="0" stop-color="#f2b123"/>
      <stop offset="1" stop-color="#fae080"/>
    </linearGradient>
    <linearGradient id="linear-gradient-4" x1="262.9" y1="151.11" x2="262.9" y2="76.07" gradientUnits="userSpaceOnUse">
      <stop offset="0" stop-color="#856122"/>
      <stop offset=".27" stop-color="#e1a310"/>
      <stop offset=".53" stop-color="#f9d425"/>
      <stop offset=".78" stop-color="#e1a310"/>
      <stop offset="1" stop-color="#8d6621"/>
    </linearGradient>
    <linearGradient id="linear-gradient-5" x1="330.7" y1="161" x2="330.7" y2="82.39" xlink:href="#linear-gradient-4"/>
    <linearGradient id="linear-gradient-6" x1="192.24" y1="161" x2="192.24" y2="82.39" xlink:href="#linear-gradient-4"/>
    <linearGradient id="linear-gradient-7" x1="266.05" y1="73.9" x2="266.05" y2="148.94" gradientUnits="userSpaceOnUse">
      <stop offset="0" stop-color="#f2b123"/>
      <stop offset=".53" stop-color="#fae080"/>
      <stop offset="1" stop-color="#fff2a5"/>
    </linearGradient>
    <linearGradient id="linear-gradient-8" x1="333.85" y1="80.22" x2="333.85" y2="158.83" xlink:href="#linear-gradient-7"/>
    <linearGradient id="linear-gradient-9" x1="195.39" y1="80.22" x2="195.39" y2="158.83" xlink:href="#linear-gradient-7"/>
    <linearGradient id="linear-gradient-10" x1="264.48" y1="303.72" x2="264.48" y2="281.76" gradientUnits="userSpaceOnUse">
      <stop offset="0" stop-color="#f2b022"/>
      <stop offset=".53" stop-color="#fbdf7e"/>
      <stop offset="1" stop-color="#ffe36a"/>
    </linearGradient>
    <linearGradient id="linear-gradient-11" x1="5.4" y1="314.18" x2="523.18" y2="314.18" gradientUnits="userSpaceOnUse">
      <stop offset="0" stop-color="#74541f"/>
      <stop offset=".27" stop-color="#ca9626"/>
      <stop offset=".48" stop-color="#e9e26b"/>
      <stop offset=".75" stop-color="#92681a"/>
      <stop offset="1" stop-color="#74541f"/>
    </linearGradient>
    <linearGradient id="New_Gradient_Swatch_3" data-name="New Gradient Swatch 3" x1="5.4" y1="314.18" x2="523.18" y2="314.18" gradientUnits="userSpaceOnUse">
      <stop offset="0" stop-color="#74541f"/>
      <stop offset=".27" stop-color="#ca9626"/>
      <stop offset=".48" stop-color="#e9e26b"/>
      <stop offset=".75" stop-color="#92681a"/>
      <stop offset="1" stop-color="#74541f"/>
    </linearGradient>
  </defs>
  <g>
    <ellipse class="cls-12" cx="264.75" cy="122.84" rx="123.77" ry="122.47"/>
    <g>
      <path class="cls-4" d="M264.75,245.68c-67.02,0-121.54-55.11-121.54-122.84S197.73,0,264.75,0s121.54,55.11,121.54,122.84-54.52,122.84-121.54,122.84ZM264.75.74c-66.61,0-120.8,54.77-120.8,122.1s54.19,122.1,120.8,122.1,120.8-54.77,120.8-122.1S331.36.74,264.75.74Z"/>
      <path class="cls-4" d="M264.75,245.68c-62.62,0-113.57-55.11-113.57-122.84S202.13,0,264.75,0s113.57,55.11,113.57,122.84-50.95,122.84-113.57,122.84ZM264.75.74c-62.21,0-112.83,54.77-112.83,122.1s50.61,122.1,112.83,122.1,112.83-54.77,112.83-122.1S326.97.74,264.75.74Z"/>
      <path class="cls-4" d="M264.75,245.68c-56.08,0-101.7-55.11-101.7-122.84S208.67,0,264.75,0s101.7,55.11,101.7,122.84-45.62,122.84-101.7,122.84ZM264.75.74c-55.67,0-100.96,54.77-100.96,122.1s45.29,122.1,100.96,122.1,100.96-54.77,100.96-122.1S320.42.74,264.75.74Z"/>
      <path class="cls-4" d="M264.75,245.68c-47.49,0-86.13-55.11-86.13-122.84S217.26,0,264.75,0s86.13,55.11,86.13,122.84-38.64,122.84-86.13,122.84ZM264.75.74c-47.08,0-85.39,54.77-85.39,122.1s38.3,122.1,85.39,122.1,85.39-54.77,85.39-122.1S311.83.74,264.75.74Z"/>
      <path class="cls-4" d="M264.75,245.68c-35.63,0-64.62-55.11-64.62-122.84S229.12,0,264.75,0s64.62,55.11,64.62,122.84-28.99,122.84-64.62,122.84ZM264.75.74c-35.22,0-63.88,54.77-63.88,122.1s28.66,122.1,63.88,122.1,63.88-54.77,63.88-122.1S299.97.74,264.75.74Z"/>
      <path class="cls-4" d="M264.75,245.68c-22.13,0-40.14-55.11-40.14-122.84S242.62,0,264.75,0s40.14,55.11,40.14,122.84-18.01,122.84-40.14,122.84ZM264.75.74c-21.73,0-39.4,54.77-39.4,122.1s17.68,122.1,39.4,122.1,39.4-54.77,39.4-122.1S286.48.74,264.75.74Z"/>
      <path class="cls-4" d="M264.75,245.68c-8.88,0-14.18-62.46-14.18-122.84S255.87,0,264.75,0s14.18,62.46,14.18,122.84-5.31,122.84-14.18,122.84ZM264.75.74c-6.49,0-13.44,49.06-13.44,122.1s6.95,122.1,13.44,122.1,13.44-49.06,13.44-122.1S271.24.74,264.75.74Z"/>
      <path class="cls-4" d="M192.39,23.9l-.19-.72c23.6-6.33,50.58-9.67,78.02-9.67,21.29,0,41.92,1.95,61.32,5.79l-.14.73c-19.35-3.84-39.94-5.78-61.18-5.78-27.38,0-54.3,3.34-77.83,9.65Z"/>
      <path class="cls-4" d="M163.27,53.29l-.35-.65c29.06-15.69,67.17-24.33,107.3-24.33,32.57,0,63.77,5.65,90.21,16.33l-.28.69c-26.36-10.65-57.45-16.28-89.93-16.28-40.01,0-78,8.61-106.95,24.24Z"/>
      <path class="cls-4" d="M147.98,83.09l-.46-.58c29.76-23.45,74.48-36.89,122.7-36.89,40.45,0,78.77,9.52,107.92,26.8l-.38.64c-29.03-17.21-67.23-26.69-107.54-26.69-48.06,0-92.61,13.39-122.24,36.73Z"/>
      <path class="cls-4" d="M142.53,105.23l-.46-.58c29.12-23.13,77.03-36.94,128.15-36.94,44.14,0,86.39,10.36,115.89,28.41l-.39.63c-29.4-17.99-71.5-28.3-115.51-28.3-50.96,0-98.7,13.75-127.69,36.78Z"/>
      <path class="cls-4" d="M141.83,135.4l-.47-.57c29.06-23.48,77.23-37.5,128.86-37.5,45.59,0,88.75,10.93,118.41,29.98l-.4.62c-29.54-18.98-72.55-29.86-118-29.86-51.46,0-99.45,13.96-128.39,37.33Z"/>
      <path class="cls-4" d="M146.96,160.18l-.43-.6c29.75-21.34,74.83-33.57,123.69-33.57,43.35,0,85.07,10.04,114.48,27.56l-.38.64c-29.29-17.44-70.88-27.45-114.1-27.45-48.71,0-93.63,12.19-123.26,33.43Z"/>
      <path class="cls-4" d="M160.23,188.39l-.46-.58c29.45-23.21,68.68-35.99,110.45-35.99,37.9,0,74.43,10.79,102.85,30.38l-.42.61c-28.3-19.51-64.68-30.25-102.43-30.25-41.61,0-80.67,12.72-109.99,35.83Z"/>
      <path class="cls-4" d="M176.85,209.15l-.42-.61c27.19-18.93,59.62-28.94,93.79-28.94,31.19,0,61.3,8.47,87.04,24.49l-.39.63c-25.63-15.95-55.6-24.38-86.65-24.38-34.02,0-66.3,9.96-93.37,28.8Z"/>
      <path class="cls-4" d="M195.97,224.87l-.36-.64c22.73-12.89,48.54-19.71,74.62-19.71,24,0,47.02,5.51,68.42,16.38l-.34.66c-21.29-10.81-44.2-16.3-68.08-16.3-25.95,0-51.63,6.78-74.25,19.61Z"/>
      <path class="cls-4" d="M217.83,236.49l-.26-.69c16.86-6.28,34.57-9.46,52.65-9.46,15.79,0,31.38,2.44,46.32,7.26l-.23.7c-14.87-4.79-30.37-7.23-46.09-7.23-17.99,0-35.61,3.17-52.39,9.41Z"/>
      <path class="cls-4" d="M243.44,243.77l-.13-.73c15.72-2.84,32.21-3.15,48.05-.93l-.1.73c-15.75-2.22-32.16-1.9-47.81.92Z"/>
    </g>
  </g>
  <path class="cls-2" d="M401.87,30.06c-75.41-17.58-171.75-1.92-230.45,36.14-62.65,40.61-30.69,69.24-30.69,69.24l-.52-9.71c-3.53-13.78,3.91-30.52,32.7-50.17C266.88,11.42,401.87,30.06,401.87,30.06Z"/>
  <path class="cls-6" d="M127.4,213.69c75.41,17.58,171.75,1.92,230.45-36.14,62.65-40.61,30.02-71.47,30.02-71.47l1.05,12.53c3.53,13.78-3.77,29.93-32.56,49.58-93.97,64.14-228.96,45.49-228.96,45.49Z"/>
  <g>
    <path class="cls-5" d="M279.69,83.51l-.15.35c-1.69,3.77-2.84,5.89-3.47,6.35-.53.36-1.47.71-2.83,1.04-1.36.33-3.26.64-5.7.94.16-.6.29-1.09.37-1.49.08-.4.12-.74.12-1.04,0-1.26-.46-2.24-1.39-2.95-.93-.71-2.2-1.07-3.82-1.07s-2.91.56-3.97,1.69c-1.06,1.12-1.59,2.55-1.59,4.27,0,1.03.24,2.17.72,3.42.48,1.26,1.18,2.56,2.11,3.92l16.86,25.49c.5-1.16.86-2.55,1.09-4.17.23-1.62.35-3.55.35-5.8v-2.53c0-1.75.35-2.84,1.04-3.25.69-.41,2.23-.62,4.61-.62h13.24c-.33,1.82-.64,3.19-.92,4.12-.28.93-.56,1.55-.82,1.88-.23.23-.98.52-2.26.87-1.27.35-2.22.8-2.85,1.36-1.06.93-2.6,3.97-4.61,9.13-1.16,2.98-2.12,5.36-2.88,7.14,1.59,2.65,3.27,4.54,5.06,5.68,1.79,1.14,3.95,1.71,6.5,1.71.69,0,1.21,0,1.54-.02.33-.02.63-.04.89-.07-1.29,4.46-2.52,7.29-3.7,8.48s-3.35,1.79-6.52,1.79h-7.54c-2.28,0-3.96-.35-5.03-1.04-1.08-.69-2.31-2.22-3.7-4.56-2.48,2.22-5.22,3.87-8.23,4.96-3.01,1.09-6.37,1.64-10.07,1.64-7.04,0-12.75-2-17.11-6-4.36-4-6.55-9.21-6.55-15.62,0-4.83,1.43-9.16,4.29-12.99,2.86-3.84,7.05-7.01,12.57-9.52-1.42-2.51-2.49-4.81-3.2-6.89-.71-2.08-1.07-3.98-1.07-5.7,0-5.65,1.79-10.12,5.36-13.39,3.57-3.27,8.41-4.91,14.53-4.91,3.67,0,7.04.61,10.12,1.84,3.08,1.22,5.93,3.09,8.58,5.6ZM250.03,113.96c-1.55,1.16-2.77,2.7-3.64,4.64-.88,1.93-1.31,4.04-1.31,6.32,0,4.2,1.4,7.7,4.22,10.51,2.81,2.81,6.35,4.22,10.61,4.22,1.19,0,2.3-.13,3.32-.4,1.02-.26,2.02-.68,2.98-1.24-2.55-3.6-5.14-7.38-7.79-11.33-2.65-3.95-5.44-8.19-8.38-12.72Z"/>
    <path class="cls-7" d="M356.5,89.84c-1.61,4.49-3.68,7.75-6.22,9.79-2.54,2.04-6.05,3.26-10.53,3.67,1.03-.96,1.78-1.83,2.26-2.62.48-.79.72-1.56.72-2.31,0-1.88-.88-3.43-2.65-4.62-1.77-1.2-4.09-1.8-6.96-1.8-2.5,0-4.51.58-6.04,1.75-1.52,1.16-2.29,2.69-2.29,4.57,0,2.84,3.2,6.63,9.61,11.36,1.71,1.3,3.05,2.33,4.01,3.08,7.6,5.96,12.71,10.87,15.31,14.72,2.6,3.85,3.91,7.99,3.91,12.41,0,6.47-2.34,11.62-7.01,15.44-4.67,3.82-11.04,5.73-19.09,5.73-5.41,0-10.41-.88-14.98-2.65-4.57-1.76-8.83-4.43-12.77-7.99,1.88-3.32,3.21-5.59,3.98-6.81.77-1.22,1.36-2.03,1.77-2.44,1.27-1.16,2.93-2.15,4.98-2.95,2.06-.8,4.57-1.48,7.55-2.03-1.13,1.23-1.97,2.41-2.52,3.52-.55,1.11-.82,2.15-.82,3.11,0,2.26,1.02,4.2,3.06,5.81,2.04,1.61,4.55,2.42,7.53,2.42s5.15-.75,6.94-2.26c1.78-1.51,2.67-3.46,2.67-5.86,0-1.64-.6-3.29-1.8-4.93-1.2-1.64-3.51-3.85-6.94-6.63-1.58-1.3-3.82-3.08-6.73-5.34-6.34-4.97-10.41-8.61-12.23-10.94-1.4-1.88-2.48-3.87-3.21-5.96-.74-2.09-1.11-4.18-1.11-6.27,0-6.2,2.17-11.15,6.53-14.85,4.35-3.7,10.17-5.55,17.47-5.55,4.52,0,8.87.61,13.05,1.82,4.18,1.22,8.36,3.09,12.54,5.63Z"/>
    <path class="cls-11" d="M218.03,89.84c-1.61,4.49-3.68,7.75-6.22,9.79-2.54,2.04-6.05,3.26-10.53,3.67,1.03-.96,1.78-1.83,2.26-2.62.48-.79.72-1.56.72-2.31,0-1.88-.88-3.43-2.65-4.62-1.77-1.2-4.09-1.8-6.96-1.8-2.5,0-4.51.58-6.04,1.75-1.52,1.16-2.29,2.69-2.29,4.57,0,2.84,3.2,6.63,9.61,11.36,1.71,1.3,3.05,2.33,4.01,3.08,7.6,5.96,12.71,10.87,15.31,14.72,2.6,3.85,3.91,7.99,3.91,12.41,0,6.47-2.34,11.62-7.01,15.44-4.67,3.82-11.04,5.73-19.09,5.73-5.41,0-10.41-.88-14.98-2.65-4.57-1.76-8.83-4.43-12.77-7.99,1.88-3.32,3.21-5.59,3.98-6.81.77-1.22,1.36-2.03,1.77-2.44,1.27-1.16,2.93-2.15,4.98-2.95,2.06-.8,4.57-1.48,7.55-2.03-1.13,1.23-1.97,2.41-2.52,3.52-.55,1.11-.82,2.15-.82,3.11,0,2.26,1.02,4.2,3.06,5.81,2.04,1.61,4.55,2.42,7.53,2.42s5.15-.75,6.94-2.26c1.78-1.51,2.67-3.46,2.67-5.86,0-1.64-.6-3.29-1.8-4.93-1.2-1.64-3.51-3.85-6.94-6.63-1.58-1.3-3.82-3.08-6.73-5.34-6.34-4.97-10.41-8.61-12.23-10.94-1.4-1.88-2.48-3.87-3.21-5.96-.74-2.09-1.11-4.18-1.11-6.27,0-6.2,2.17-11.15,6.53-14.85,4.35-3.7,10.17-5.55,17.47-5.55,4.52,0,8.87.61,13.05,1.82,4.18,1.22,8.36,3.09,12.54,5.63Z"/>
  </g>
  <g>
    <path class="cls-9" d="M282.84,81.34l-.15.35c-1.69,3.77-2.84,5.89-3.47,6.35-.53.36-1.47.71-2.83,1.04-1.36.33-3.26.64-5.7.94.16-.6.29-1.09.37-1.49.08-.4.12-.74.12-1.04,0-1.26-.46-2.24-1.39-2.95-.93-.71-2.2-1.07-3.82-1.07s-2.91.56-3.97,1.69c-1.06,1.12-1.59,2.55-1.59,4.27,0,1.03.24,2.17.72,3.42.48,1.26,1.18,2.56,2.11,3.92l16.86,25.49c.5-1.16.86-2.55,1.09-4.17.23-1.62.35-3.55.35-5.8v-2.53c0-1.75.35-2.84,1.04-3.25.69-.41,2.23-.62,4.61-.62h13.24c-.33,1.82-.64,3.19-.92,4.12-.28.93-.56,1.55-.82,1.88-.23.23-.98.52-2.26.87-1.27.35-2.22.8-2.85,1.36-1.06.93-2.6,3.97-4.61,9.13-1.16,2.98-2.12,5.36-2.88,7.14,1.59,2.65,3.27,4.54,5.06,5.68s3.95,1.71,6.5,1.71c.69,0,1.21,0,1.54-.02.33-.02.63-.04.89-.07-1.29,4.46-2.52,7.29-3.7,8.48-1.17,1.19-3.35,1.79-6.52,1.79h-7.54c-2.28,0-3.96-.35-5.03-1.04-1.08-.69-2.31-2.22-3.7-4.56-2.48,2.22-5.22,3.87-8.23,4.96-3.01,1.09-6.37,1.64-10.07,1.64-7.04,0-12.75-2-17.11-6-4.36-4-6.55-9.21-6.55-15.62,0-4.83,1.43-9.16,4.29-12.99,2.86-3.84,7.05-7.01,12.57-9.52-1.42-2.51-2.49-4.81-3.2-6.89-.71-2.08-1.07-3.98-1.07-5.7,0-5.65,1.79-10.12,5.36-13.39s8.41-4.91,14.53-4.91c3.67,0,7.04.61,10.12,1.84,3.08,1.22,5.93,3.09,8.58,5.6ZM253.18,111.79c-1.55,1.16-2.77,2.7-3.64,4.64-.88,1.93-1.31,4.04-1.31,6.32,0,4.2,1.4,7.7,4.22,10.51,2.81,2.81,6.35,4.22,10.61,4.22,1.19,0,2.3-.13,3.32-.4,1.02-.26,2.02-.68,2.98-1.24-2.55-3.6-5.14-7.38-7.79-11.33-2.65-3.95-5.44-8.19-8.38-12.72Z"/>
    <path class="cls-8" d="M359.65,87.67c-1.61,4.49-3.68,7.75-6.22,9.79-2.54,2.04-6.05,3.26-10.53,3.67,1.03-.96,1.78-1.83,2.26-2.62.48-.79.72-1.56.72-2.31,0-1.88-.88-3.43-2.65-4.62-1.77-1.2-4.09-1.8-6.96-1.8-2.5,0-4.51.58-6.04,1.75-1.52,1.16-2.29,2.69-2.29,4.57,0,2.84,3.2,6.63,9.61,11.36,1.71,1.3,3.05,2.33,4.01,3.08,7.6,5.96,12.71,10.87,15.31,14.72,2.6,3.85,3.91,7.99,3.91,12.41,0,6.47-2.34,11.62-7.01,15.44-4.67,3.82-11.04,5.73-19.09,5.73-5.41,0-10.41-.88-14.98-2.65-4.57-1.76-8.83-4.43-12.77-7.99,1.88-3.32,3.21-5.59,3.98-6.81.77-1.22,1.36-2.03,1.77-2.44,1.27-1.16,2.93-2.15,4.98-2.95,2.06-.8,4.57-1.48,7.55-2.03-1.13,1.23-1.97,2.41-2.52,3.52-.55,1.11-.82,2.15-.82,3.11,0,2.26,1.02,4.2,3.06,5.81,2.04,1.61,4.55,2.42,7.53,2.42s5.15-.75,6.94-2.26c1.78-1.51,2.67-3.46,2.67-5.86,0-1.64-.6-3.29-1.8-4.93-1.2-1.64-3.51-3.85-6.94-6.63-1.58-1.3-3.82-3.08-6.73-5.34-6.34-4.97-10.41-8.61-12.23-10.94-1.4-1.88-2.48-3.87-3.21-5.96-.74-2.09-1.11-4.18-1.11-6.27,0-6.2,2.17-11.15,6.53-14.85,4.35-3.7,10.17-5.55,17.47-5.55,4.52,0,8.87.61,13.05,1.82,4.18,1.22,8.36,3.09,12.54,5.63Z"/>
    <path class="cls-10" d="M221.18,87.67c-1.61,4.49-3.68,7.75-6.22,9.79-2.54,2.04-6.05,3.26-10.53,3.67,1.03-.96,1.78-1.83,2.26-2.62.48-.79.72-1.56.72-2.31,0-1.88-.88-3.43-2.65-4.62-1.77-1.2-4.09-1.8-6.96-1.8-2.5,0-4.51.58-6.04,1.75-1.52,1.16-2.29,2.69-2.29,4.57,0,2.84,3.2,6.63,9.61,11.36,1.71,1.3,3.05,2.33,4.01,3.08,7.6,5.96,12.71,10.87,15.31,14.72,2.6,3.85,3.91,7.99,3.91,12.41,0,6.47-2.34,11.62-7.01,15.44-4.67,3.82-11.04,5.73-19.09,5.73-5.41,0-10.41-.88-14.98-2.65-4.57-1.76-8.83-4.43-12.77-7.99,1.88-3.32,3.21-5.59,3.98-6.81.77-1.22,1.36-2.03,1.77-2.44,1.27-1.16,2.93-2.15,4.98-2.95,2.06-.8,4.57-1.48,7.55-2.03-1.13,1.23-1.97,2.41-2.52,3.52-.55,1.11-.82,2.15-.82,3.11,0,2.26,1.02,4.2,3.06,5.81,2.04,1.61,4.55,2.42,7.53,2.42s5.15-.75,6.94-2.26c1.78-1.51,2.67-3.46,2.67-5.86,0-1.64-.6-3.29-1.8-4.93-1.2-1.64-3.51-3.85-6.94-6.63-1.58-1.3-3.82-3.08-6.73-5.34-6.34-4.97-10.41-8.61-12.23-10.94-1.4-1.88-2.48-3.87-3.21-5.96-.74-2.09-1.11-4.18-1.11-6.27,0-6.2,2.17-11.15,6.53-14.85,4.35-3.7,10.17-5.55,17.47-5.55,4.52,0,8.87.61,13.05,1.82,4.18,1.22,8.36,3.09,12.54,5.63Z"/>
  </g>
  <g>
    <path class="cls-3" d="M4.79,295.26c0,4.12.11,5.91.62,6.41.45.45,1.18.64,3.36.64,1.48,0,2.72-.03,3.39-.84.36-.45.64-1.15.73-1.68.03-.22.08-.36.25-.36.14,0,.17.11.17.42s-.2,1.99-.42,2.8c-.2.64-.28.76-1.76.76-2.41,0-4.79-.17-7.5-.17-.87,0-1.71.08-2.74.08-.31,0-.45-.06-.45-.22,0-.08.06-.17.22-.17.25,0,.59-.06.84-.11.56-.11.7-.73.81-1.54.14-1.18.14-3.39.14-6.08v-4.93c0-4.37,0-5.15-.06-6.05-.06-.95-.28-1.4-1.2-1.6-.22-.06-.7-.08-.95-.08-.11,0-.22-.06-.22-.17,0-.17.14-.22.45-.22,1.26,0,3.02.08,3.16.08s2.18-.08,3.02-.08c.31,0,.45.06.45.22,0,.11-.11.17-.22.17-.2,0-.59.03-.92.08-.81.14-1.04.62-1.09,1.6-.06.9-.06,1.68-.06,6.05v4.98Z"/>
    <path class="cls-3" d="M18.37,292.21c0-3.67,0-4.34-.06-5.1-.06-.78-.25-1.18-1.06-1.34-.17-.03-.45-.06-.67-.06-.2,0-.36-.08-.36-.17,0-.17.14-.22.42-.22.56,0,1.32.06,2.88.08.14,0,5.12,0,5.68-.03.56-.03.87-.06,1.09-.14.17-.06.2-.08.31-.08.06,0,.11.06.11.2,0,.17-.17.56-.22,1.26-.03.48-.06.92-.08,1.46,0,.25-.06.42-.2.42s-.2-.11-.2-.31c-.03-.42-.11-.7-.2-.9-.17-.56-.42-.76-1.82-.84-.36-.03-3.14-.06-3.19-.06-.08,0-.14.06-.14.22v6.36c0,.17.03.28.17.28.34,0,3.19-.03,3.78-.08.64-.03,1.06-.11,1.29-.42.11-.17.2-.22.31-.22.06,0,.11.03.11.17s-.11.67-.2,1.48c-.08.78-.08,1.34-.11,1.71-.03.22-.08.31-.2.31-.14,0-.17-.17-.17-.36,0-.17-.03-.45-.08-.67-.11-.36-.28-.76-1.34-.84-.64-.06-2.91-.11-3.36-.11-.17,0-.2.08-.2.2v2.04c0,.87-.03,3.33,0,3.81.06,1.04.2,1.57.78,1.82.42.2,1.09.25,2.04.25.53,0,1.43.03,2.13-.17.84-.25,1.04-.81,1.26-1.85.06-.28.14-.39.25-.39.17,0,.17.25.17.42,0,.2-.22,1.96-.31,2.44-.11.56-.31.62-1.23.62-1.85,0-2.63-.06-3.61-.06-.98-.03-2.27-.08-3.3-.08-.64,0-1.18.08-1.85.08-.25,0-.39-.06-.39-.2,0-.11.11-.2.25-.2.17,0,.36-.03.56-.08.5-.11.84-.48.9-2.21.03-.95.06-2.1.06-4.23v-4.2Z"/>
    <path class="cls-3" d="M47.46,301.25c0,1.12-.03,1.15-.34,1.32-1.54.78-3.78,1.06-5.15,1.06-1.82,0-5.35-.14-8.2-2.52-1.51-1.26-3.02-3.61-3.02-6.8,0-3.81,1.93-6.52,4.23-7.9,2.16-1.26,4.54-1.43,6.24-1.43,1.79,0,3,.22,4,.39.45.08,1.54.22,2.13.25.22,0,.22.11.22.22,0,.34-.2,1.18-.2,3.64,0,.39-.03.5-.22.5-.14,0-.17-.17-.2-.34,0-.25-.11-1.12-.53-1.74-.64-.92-2.66-1.96-5.8-1.96-1.51,0-3.28.06-5.15,1.48-1.43,1.09-2.35,3.22-2.35,5.99,0,3.33,1.82,5.8,2.55,6.5,1.85,1.79,3.92,2.6,6.36,2.6.78,0,2.02-.14,2.66-.48.28-.17.48-.45.48-.84v-4.03c0-1.85-.14-2.21-1.12-2.35-.17-.03-.45-.06-.67-.06s-.34-.11-.34-.2c0-.14.11-.2.42-.2,1.12,0,2.74.06,2.86.06s1.76-.06,2.52-.06c.28,0,.39.06.39.2,0,.08-.08.2-.34.2-.2,0-.25,0-.48.03-.67.08-.84.59-.9,1.4-.06.81-.06,1.51-.06,2.52v2.52Z"/>
    <path class="cls-3" d="M56.48,296.49c-.14,0-.22.08-.28.22l-1.23,3.5c-.28.78-.48,1.54-.48,1.99,0,.5.31.73.92.73h.2c.25,0,.34.08.34.2,0,.14-.22.2-.42.2-.62,0-1.9-.08-2.21-.08-.28,0-1.51.08-2.69.08-.31,0-.45-.06-.45-.2,0-.11.11-.2.34-.2.14,0,.39,0,.56-.03,1.2-.11,1.68-1.04,2.16-2.21l5.6-14.76c.31-.81.39-.95.59-.95.14,0,.25.11.56.9.39.92,4.2,10.7,5.68,14.2.92,2.21,1.74,2.58,2.13,2.72.36.14.76.14.95.14s.34.06.34.2-.11.2-.42.2c-.28,0-2.38,0-4.26-.06-.53-.03-.7-.06-.7-.2,0-.08.08-.17.2-.2.11-.06.28-.2.11-.62l-2.21-5.63c-.06-.08-.11-.14-.22-.14h-5.1ZM61.24,295.51c.11,0,.11-.08.08-.17l-2.21-6.19c-.14-.39-.17-.39-.31,0l-2.1,6.19c-.06.11,0,.17.06.17h4.48Z"/>
    <path class="cls-3" d="M74.79,296.46c0,3.22.11,4.84.59,5.29.45.39,1.01.56,2.94.56,1.23,0,2.35,0,2.97-.78.28-.42.48-.98.53-1.4.03-.22.08-.34.22-.34.11,0,.17.08.17.36s-.17,1.88-.34,2.52c-.17.56-.14.7-1.48.7-1.9,0-4-.14-6.8-.14-.92,0-1.48.08-2.46.08-.28,0-.45-.06-.45-.22,0-.08.08-.17.31-.17s.45,0,.67-.06c.48-.08.64-.64.73-1.32.17-1.06.11-3,.11-5.15v-4.2c0-3.7,0-4.31-.06-5.07-.06-.78-.17-1.29-1.12-1.4-.17-.03-.48-.03-.7-.03-.2,0-.31-.08-.31-.2,0-.14.14-.2.42-.2,1.18,0,2.86.08,2.91.08.39,0,2.1-.08,2.88-.08.28,0,.36.08.36.2s-.14.2-.31.2c-.2,0-.48.03-.76.06-.78.11-.95.56-1.01,1.37-.06.76-.03,1.37-.03,5.07v4.26Z"/>
    <path class="cls-3" d="M97.5,296.49c-.14,0-.22.08-.28.22l-1.23,3.5c-.28.78-.48,1.54-.48,1.99,0,.5.31.73.92.73h.2c.25,0,.34.08.34.2,0,.14-.22.2-.42.2-.62,0-1.9-.08-2.21-.08-.28,0-1.51.08-2.69.08-.31,0-.45-.06-.45-.2,0-.11.11-.2.34-.2.14,0,.39,0,.56-.03,1.2-.11,1.68-1.04,2.16-2.21l5.6-14.76c.31-.81.39-.95.59-.95.14,0,.25.11.56.9.39.92,4.2,10.7,5.68,14.2.92,2.21,1.74,2.58,2.13,2.72.36.14.76.14.95.14s.34.06.34.2-.11.2-.42.2c-.28,0-2.38,0-4.26-.06-.53-.03-.7-.06-.7-.2,0-.08.08-.17.2-.2.11-.06.28-.2.11-.62l-2.21-5.63c-.06-.08-.11-.14-.22-.14h-5.1ZM102.25,295.51c.11,0,.11-.08.08-.17l-2.21-6.19c-.14-.39-.17-.39-.31,0l-2.1,6.19c-.06.11,0,.17.06.17h4.48Z"/>
    <path class="cls-3" d="M112.75,286.13c0-.87.08-1.15.31-1.15.2,0,.67.56.87.76.25.28,4.14,4.26,8.06,8.26,2.18,2.13,4.98,5.01,5.71,5.68l-.31-11.65c-.03-1.51-.2-2.02-.95-2.21-.48-.08-.9-.11-1.09-.11-.28,0-.34-.11-.34-.22,0-.14.22-.17.5-.17,1.2,0,2.38.08,2.63.08.28,0,1.15-.08,2.24-.08.31,0,.39.03.39.17,0,.11-.08.2-.25.22-.17.03-.39.03-.7.08-.64.14-.84.42-.84,2.1l-.06,14.06c0,1.4-.06,1.54-.25,1.54s-.48-.2-1.85-1.48c-.11-.06-4-3.92-6.44-6.3-2.91-3.02-5.71-5.94-6.41-6.66l.36,10.95c.06,1.93.22,2.66.92,2.83.45.11.92.11,1.15.11s.34.08.34.2c0,.14-.14.2-.45.2-1.51,0-2.52-.08-2.72-.08s-1.23.08-2.44.08c-.25,0-.42-.03-.42-.2,0-.11.11-.2.39-.2.2,0,.5,0,.87-.11.62-.2.76-.95.76-3,0-13.36.03-9.04,0-13.69Z"/>
    <path class="cls-3" d="M137,292.21c0-3.7,0-4.4-.06-5.12-.06-.76-.28-1.15-1.09-1.32-.17-.03-.59-.06-.81-.06-.14,0-.28-.08-.28-.17,0-.17.17-.22.42-.22,1.15,0,2.91.08,3,.08.2,0,1.65-.08,3.22-.08,2.46,0,7.06-.25,10.02,2.74,1.23,1.23,2.38,3.19,2.38,6.02,0,2.97-1.29,5.29-2.66,6.69-1.09,1.09-3.22,2.74-7.48,2.74-1.06,0-2.44-.06-3.5-.14-1.06-.06-1.93-.14-2.02-.14-.06,0-.42,0-.95.03-.53,0-1.2.06-1.62.06-.25,0-.39-.06-.39-.2,0-.08.08-.2.31-.2s.42-.03.64-.08c.48-.08.64-.67.73-1.29.17-1.04.14-2.94.14-5.21v-4.14ZM139.3,294.59c0,2.52.03,4.7.03,5.12.03.87.08,1.62.28,1.88.31.48,1.2,1.06,4.12,1.06,2.3,0,4.37-.73,5.82-2.18,1.23-1.23,1.82-3.33,1.82-5.57,0-3.16-1.46-5.1-2.41-6.02-2.38-2.38-5.12-2.66-7.9-2.66-.39,0-1.26.08-1.43.2-.22.11-.31.22-.31.48-.03.81-.03,3.19-.03,4.87v2.83Z"/>
    <path class="cls-3" d="M169.62,300.69c-2.72-2.44-3.39-5.63-3.39-8.29,0-1.88.64-5.15,3.14-7.64,1.68-1.68,4.23-3,8.54-3,1.12,0,2.69.08,4.06.34,1.06.2,1.93.28,2.97.42.2.03.25.14.25.31,0,.22-.08.56-.14,1.57-.06.92-.06,2.46-.08,2.88-.03.42-.08.59-.25.59-.2,0-.22-.2-.22-.59,0-1.09-.45-2.24-1.18-2.86-.98-.84-3.14-1.6-5.6-1.6-3.72,0-5.46,1.09-6.44,2.04-2.04,1.96-2.52,4.45-2.52,7.31,0,5.35,4.12,10.25,10.11,10.25,2.1,0,3.75-.25,4.87-1.4.59-.62.95-1.85,1.04-2.35.06-.31.11-.42.28-.42.14,0,.2.2.2.42,0,.2-.34,2.63-.62,3.58-.17.53-.22.59-.73.81-1.12.45-3.25.64-5.04.64-4.2,0-7.03-1.04-9.24-3.02Z"/>
    <path class="cls-3" d="M188.52,294.28c0-3.72,2.88-9.3,9.8-9.3,5.54,0,9.77,3.3,9.77,8.93s-3.95,9.72-9.91,9.72c-6.86,0-9.66-5.1-9.66-9.35ZM205.46,294.62c0-5.63-3.47-8.76-7.31-8.76s-7.03,2.41-7.03,7.7,3.05,9.13,7.76,9.13c1.88,0,6.58-.95,6.58-8.06Z"/>
    <path class="cls-3" d="M213.25,286.13c0-.87.08-1.15.31-1.15.2,0,.67.56.87.76.25.28,4.14,4.26,8.06,8.26,2.18,2.13,4.98,5.01,5.71,5.68l-.31-11.65c-.03-1.51-.2-2.02-.95-2.21-.48-.08-.9-.11-1.09-.11-.28,0-.34-.11-.34-.22,0-.14.22-.17.5-.17,1.2,0,2.38.08,2.63.08.28,0,1.15-.08,2.24-.08.31,0,.39.03.39.17,0,.11-.08.2-.25.22-.17.03-.39.03-.7.08-.64.14-.84.42-.84,2.1l-.06,14.06c0,1.4-.06,1.54-.25,1.54s-.48-.2-1.85-1.48c-.11-.06-4-3.92-6.44-6.3-2.91-3.02-5.71-5.94-6.41-6.66l.36,10.95c.06,1.93.22,2.66.92,2.83.45.11.92.11,1.15.11s.34.08.34.2c0,.14-.14.2-.45.2-1.51,0-2.52-.08-2.72-.08s-1.23.08-2.44.08c-.25,0-.42-.03-.42-.2,0-.11.11-.2.39-.2.2,0,.5,0,.87-.11.62-.2.76-.95.76-3,0-13.36.03-9.04,0-13.69Z"/>
    <path class="cls-3" d="M235.39,287.62c-.56-1.32-.76-1.65-1.76-1.82-.39-.06-.7-.08-.84-.08-.22,0-.34-.08-.34-.2,0-.14.2-.2.45-.2,1.29,0,2.91.08,3.19.08.25,0,1.57-.08,2.6-.08.34,0,.45.06.45.17,0,.14-.11.22-.42.22-.39,0-.64.06-.87.14-.25.14-.25.31-.25.48,0,.2.17.73.45,1.4l4.93,12.38c1.4-3.11,4.62-11.23,5.12-12.91.14-.36.22-.73.22-.92,0-.17-.03-.36-.25-.45s-.59-.11-.9-.11c-.2,0-.36-.06-.36-.17,0-.14.08-.22.42-.22,1.01,0,2.35.08,2.66.08.11,0,1.23-.08,1.93-.08.28,0,.42.06.42.17,0,.14-.11.22-.31.22-.34,0-.7,0-1.2.28-.31.22-.64.56-1.32,2.18-.14.34-1.54,3.56-2.8,6.44-1.48,3.47-2.63,6.1-3.11,7.06-.76,1.54-.84,1.96-1.12,1.96-.34,0-.48-.34-.95-1.57l-6.05-14.45Z"/>
    <path class="cls-3" d="M255.8,292.21c0-3.67,0-4.34-.06-5.1-.06-.78-.25-1.18-1.06-1.34-.17-.03-.45-.06-.67-.06-.2,0-.36-.08-.36-.17,0-.17.14-.22.42-.22.56,0,1.32.06,2.88.08.14,0,5.12,0,5.68-.03.56-.03.87-.06,1.09-.14.17-.06.2-.08.31-.08.06,0,.11.06.11.2,0,.17-.17.56-.22,1.26-.03.48-.06.92-.08,1.46,0,.25-.06.42-.2.42s-.2-.11-.2-.31c-.03-.42-.11-.7-.2-.9-.17-.56-.42-.76-1.82-.84-.36-.03-3.14-.06-3.19-.06-.08,0-.14.06-.14.22v6.36c0,.17.03.28.17.28.34,0,3.19-.03,3.78-.08.64-.03,1.06-.11,1.29-.42.11-.17.2-.22.31-.22.06,0,.11.03.11.17s-.11.67-.2,1.48c-.08.78-.08,1.34-.11,1.71-.03.22-.08.31-.2.31-.14,0-.17-.17-.17-.36,0-.17-.03-.45-.08-.67-.11-.36-.28-.76-1.34-.84-.64-.06-2.91-.11-3.36-.11-.17,0-.2.08-.2.2v2.04c0,.87-.03,3.33,0,3.81.06,1.04.2,1.57.78,1.82.42.2,1.09.25,2.04.25.53,0,1.43.03,2.13-.17.84-.25,1.04-.81,1.26-1.85.06-.28.14-.39.25-.39.17,0,.17.25.17.42,0,.2-.22,1.96-.31,2.44-.11.56-.31.62-1.23.62-1.85,0-2.63-.06-3.61-.06-.98-.03-2.27-.08-3.3-.08-.64,0-1.18.08-1.85.08-.25,0-.39-.06-.39-.2,0-.11.11-.2.25-.2.17,0,.36-.03.56-.08.5-.11.84-.48.9-2.21.03-.95.06-2.1.06-4.23v-4.2Z"/>
    <path class="cls-3" d="M274.2,297.22c0-1.34-.2-1.85-.62-2.58-.17-.31-3.42-5.6-4.28-6.8-.76-1.06-1.04-1.4-1.43-1.71-.39-.28-.76-.39-1.32-.42-.17,0-.31-.08-.31-.22,0-.08.11-.17.34-.17.45,0,2.58.08,2.63.08.17,0,1.09-.08,2.13-.08.28,0,.36.08.36.17,0,.11-.08.17-.31.22-.39.08-.45.22-.45.45,0,.28.17.56.36.92.36.7,4.06,6.64,4.48,7.34.45-.98,3.58-6.1,3.98-6.8.53-.92.64-1.18.64-1.48,0-.36-.34-.36-.64-.42-.22-.03-.31-.11-.31-.22,0-.08.06-.17.34-.17.67,0,1.26.08,1.71.08.36,0,1.99-.08,2.46-.08.25,0,.34.08.34.17,0,.14-.14.22-.34.22-.59.03-1.01.08-1.4.36-.42.28-.59.53-1.04,1.15-1.62,2.24-4.34,6.8-4.76,7.78-.34.87-.28,1.48-.28,2.21v2.04c0,.2,0,1.23.06,2.24.06.67.11,1.15.98,1.32.36.08.84.11,1.04.11.22,0,.31.08.31.17,0,.14-.08.22-.34.22-1.4,0-3.14-.08-3.22-.08-.06,0-1.74.08-2.52.08-.28,0-.39-.08-.39-.22,0-.08.08-.17.28-.17.22,0,.48-.03.7-.08.48-.08.67-.67.73-1.34.08-1.01.08-2.02.08-2.24v-2.04Z"/>
    <path class="cls-3" d="M287.87,296.49c-.14,0-.22.08-.28.22l-1.23,3.5c-.28.78-.48,1.54-.48,1.99,0,.5.31.73.92.73h.2c.25,0,.34.08.34.2,0,.14-.22.2-.42.2-.62,0-1.9-.08-2.21-.08-.28,0-1.51.08-2.69.08-.31,0-.45-.06-.45-.2,0-.11.11-.2.34-.2.14,0,.39,0,.56-.03,1.2-.11,1.68-1.04,2.16-2.21l5.6-14.76c.31-.81.39-.95.59-.95.14,0,.25.11.56.9.39.92,4.2,10.7,5.68,14.2.92,2.21,1.74,2.58,2.13,2.72.36.14.76.14.95.14s.34.06.34.2-.11.2-.42.2c-.28,0-2.38,0-4.26-.06-.53-.03-.7-.06-.7-.2,0-.08.08-.17.2-.2.11-.06.28-.2.11-.62l-2.21-5.63c-.06-.08-.11-.14-.22-.14h-5.1ZM292.62,295.51c.11,0,.11-.08.08-.17l-2.21-6.19c-.14-.39-.17-.39-.31,0l-2.1,6.19c-.06.11,0,.17.06.17h4.48Z"/>
    <path class="cls-3" d="M303.12,286.13c0-.87.08-1.15.31-1.15.2,0,.67.56.87.76.25.28,4.14,4.26,8.06,8.26,2.18,2.13,4.98,5.01,5.71,5.68l-.31-11.65c-.03-1.51-.2-2.02-.95-2.21-.48-.08-.9-.11-1.09-.11-.28,0-.34-.11-.34-.22,0-.14.22-.17.5-.17,1.2,0,2.38.08,2.63.08.28,0,1.15-.08,2.24-.08.31,0,.39.03.39.17,0,.11-.08.2-.25.22-.17.03-.39.03-.7.08-.64.14-.84.42-.84,2.1l-.06,14.06c0,1.4-.06,1.54-.25,1.54s-.48-.2-1.85-1.48c-.11-.06-4-3.92-6.44-6.3-2.91-3.02-5.71-5.94-6.41-6.66l.36,10.95c.06,1.93.22,2.66.92,2.83.45.11.92.11,1.15.11s.34.08.34.2c0,.14-.14.2-.45.2-1.51,0-2.52-.08-2.72-.08s-1.23.08-2.44.08c-.25,0-.42-.03-.42-.2,0-.11.11-.2.39-.2.2,0,.5,0,.87-.11.62-.2.76-.95.76-3,0-13.36.03-9.04,0-13.69Z"/>
    <path class="cls-3" d="M327.57,301.08c-2.38-2.07-3-4.82-3-7.14,0-1.57.62-4.34,2.83-6.47,1.51-1.46,3.78-2.49,7.53-2.49,1.29,0,2.32.11,3.7.31.9.14,1.79.28,2.46.31.22,0,.25.14.25.28,0,.22-.08.48-.14,1.37-.03.78-.03,2.24-.06,2.58-.03.39-.08.53-.22.53-.2,0-.22-.17-.22-.53,0-.81-.39-1.9-1.09-2.44-.84-.73-2.8-1.43-4.96-1.43-3.11,0-4.54.87-5.38,1.62-1.82,1.65-2.24,3.67-2.24,6.13,0,4.65,3.78,8.74,8.71,8.74,1.9,0,3.3-.2,4.28-1.15.5-.53.78-1.23.92-2.02.06-.28.14-.42.31-.42.14,0,.14.2.14.39,0,.22-.36,2.49-.56,3.11-.17.45-.25.53-.64.7-.98.42-2.86.56-4.42.56-3.7,0-6.22-.84-8.2-2.55Z"/>
    <path class="cls-3" d="M346.97,292.21c0-3.7,0-4.37-.06-5.12-.06-.76-.22-1.18-.81-1.29-.28-.06-.48-.06-.64-.08-.2-.03-.31-.08-.31-.2,0-.14.11-.2.42-.2.87,0,2.46.08,2.55.08.11,0,1.74-.08,2.52-.08.28,0,.42.06.42.2,0,.11-.08.17-.31.2-.17.03-.31.03-.5.06-.81.11-.9.53-.95,1.34-.06.76-.03,1.4-.03,5.1v4.2c0,2.16-.03,4.12.11,5.12.11.81.22,1.12.95,1.29.36.08.95.11,1.06.11.25.03.31.08.31.2s-.11.2-.39.2c-1.43,0-3.05-.08-3.19-.08-.08,0-1.74.08-2.52.08-.25,0-.45-.06-.45-.2,0-.11.11-.2.36-.2.14,0,.45-.03.67-.08.48-.11.56-.67.64-1.34.14-1.01.14-3,.14-5.1v-4.2Z"/>
    <path class="cls-3" d="M357.19,286.13c0-.87.08-1.15.31-1.15.2,0,.67.56.87.76.25.28,4.14,4.26,8.06,8.26,2.18,2.13,4.98,5.01,5.71,5.68l-.31-11.65c-.03-1.51-.2-2.02-.95-2.21-.48-.08-.9-.11-1.09-.11-.28,0-.34-.11-.34-.22,0-.14.22-.17.5-.17,1.2,0,2.38.08,2.63.08.28,0,1.15-.08,2.24-.08.31,0,.39.03.39.17,0,.11-.08.2-.25.22-.17.03-.39.03-.7.08-.64.14-.84.42-.84,2.1l-.06,14.06c0,1.4-.06,1.54-.25,1.54s-.48-.2-1.85-1.48c-.11-.06-4-3.92-6.44-6.3-2.91-3.02-5.71-5.94-6.41-6.66l.36,10.95c.06,1.93.22,2.66.92,2.83.45.11.92.11,1.15.11s.34.08.34.2c0,.14-.14.2-.45.2-1.51,0-2.52-.08-2.72-.08s-1.23.08-2.44.08c-.25,0-.42-.03-.42-.2,0-.11.11-.2.39-.2.2,0,.5,0,.87-.11.62-.2.76-.95.76-3,0-13.36.03-9.04,0-13.69Z"/>
    <path class="cls-3" d="M395.36,301.25c0,1.12-.03,1.15-.34,1.32-1.54.78-3.78,1.06-5.15,1.06-1.82,0-5.35-.14-8.2-2.52-1.51-1.26-3.02-3.61-3.02-6.8,0-3.81,1.93-6.52,4.23-7.9,2.16-1.26,4.54-1.43,6.24-1.43,1.79,0,3,.22,4,.39.45.08,1.54.22,2.13.25.22,0,.22.11.22.22,0,.34-.2,1.18-.2,3.64,0,.39-.03.5-.22.5-.14,0-.17-.17-.2-.34,0-.25-.11-1.12-.53-1.74-.64-.92-2.66-1.96-5.8-1.96-1.51,0-3.28.06-5.15,1.48-1.43,1.09-2.35,3.22-2.35,5.99,0,3.33,1.82,5.8,2.55,6.5,1.85,1.79,3.92,2.6,6.36,2.6.78,0,2.02-.14,2.66-.48.28-.17.48-.45.48-.84v-4.03c0-1.85-.14-2.21-1.12-2.35-.17-.03-.45-.06-.67-.06s-.34-.11-.34-.2c0-.14.11-.2.42-.2,1.12,0,2.74.06,2.86.06s1.76-.06,2.52-.06c.28,0,.39.06.39.2,0,.08-.08.2-.34.2-.2,0-.25,0-.48.03-.67.08-.84.59-.9,1.4-.06.81-.06,1.51-.06,2.52v2.52Z"/>
    <path class="cls-3" d="M410.45,303.02c-.36-.17-.36-.28-.36-.95,0-1.29.08-2.24.11-2.63.03-.25.08-.39.22-.39s.2.08.2.28c0,.17,0,.5.08.84.36,1.82,2.02,2.52,3.64,2.52,2.32,0,3.44-1.6,3.44-3,0-1.6-.73-2.58-2.77-4.23l-1.12-.87c-2.69-2.16-3.25-3.64-3.25-5.29,0-2.58,2.04-4.31,5.18-4.31.98,0,1.65.08,2.27.22.53.11.76.14.95.14s.25.06.25.17-.11,1.09-.11,2.72c0,.42-.06.59-.2.59s-.17-.11-.2-.31c-.03-.25-.08-.84-.34-1.32-.14-.25-.78-1.32-3.14-1.32-1.68,0-2.94,1.01-2.94,2.69,0,1.32.67,2.13,3,3.89l.64.5c2.91,2.24,3.67,3.72,3.67,5.71,0,1.01-.42,2.8-2.13,3.98-1.09.7-2.44.98-3.78.98-1.18,0-2.27-.14-3.33-.62Z"/>
    <path class="cls-3" d="M425.4,292.21c0-3.67,0-4.34-.06-5.1-.06-.78-.25-1.18-1.06-1.34-.17-.03-.45-.06-.67-.06-.2,0-.36-.08-.36-.17,0-.17.14-.22.42-.22.56,0,1.32.06,2.88.08.14,0,5.12,0,5.68-.03.56-.03.87-.06,1.09-.14.17-.06.2-.08.31-.08.06,0,.11.06.11.2,0,.17-.17.56-.22,1.26-.03.48-.06.92-.08,1.46,0,.25-.06.42-.2.42s-.2-.11-.2-.31c-.03-.42-.11-.7-.2-.9-.17-.56-.42-.76-1.82-.84-.36-.03-3.14-.06-3.19-.06-.08,0-.14.06-.14.22v6.36c0,.17.03.28.17.28.34,0,3.19-.03,3.78-.08.64-.03,1.06-.11,1.29-.42.11-.17.2-.22.31-.22.06,0,.11.03.11.17s-.11.67-.2,1.48c-.08.78-.08,1.34-.11,1.71-.03.22-.08.31-.2.31-.14,0-.17-.17-.17-.36,0-.17-.03-.45-.08-.67-.11-.36-.28-.76-1.34-.84-.64-.06-2.91-.11-3.36-.11-.17,0-.2.08-.2.2v2.04c0,.87-.03,3.33,0,3.81.06,1.04.2,1.57.78,1.82.42.2,1.09.25,2.04.25.53,0,1.43.03,2.13-.17.84-.25,1.04-.81,1.26-1.85.06-.28.14-.39.25-.39.17,0,.17.25.17.42,0,.2-.22,1.96-.31,2.44-.11.56-.31.62-1.23.62-1.85,0-2.63-.06-3.61-.06-.98-.03-2.27-.08-3.3-.08-.64,0-1.18.08-1.85.08-.25,0-.39-.06-.39-.2,0-.11.11-.2.25-.2.17,0,.36-.03.56-.08.5-.11.84-.48.9-2.21.03-.95.06-2.1.06-4.23v-4.2Z"/>
    <path class="cls-3" d="M440.01,292.21c0-3.7,0-4.37-.06-5.12-.06-.76-.25-1.18-1.12-1.34-.17-.03-.45-.06-.67-.06-.2,0-.31-.06-.31-.17s.08-.2.34-.2c1.2,0,2.91.08,2.97.08.25,0,2.16-.08,2.94-.08,1.57,0,3.28.14,4.59,1.06.53.39,1.68,1.51,1.68,3.42,0,1.54-.76,3.5-2.97,5.29,2.04,2.52,3.72,4.59,5.15,6.08,1.34,1.37,2.18,1.6,2.97,1.71.2.03.78.06.87.06.22,0,.31.08.31.2,0,.14-.11.2-.5.2h-1.96c-1.32,0-1.93-.08-2.55-.34-1.18-.5-2.02-1.76-3.47-3.64-1.09-1.34-2.21-2.86-2.69-3.44-.11-.11-.17-.17-.34-.17l-2.88-.03c-.11,0-.14.03-.14.14v.39c0,2.24,0,4.28.14,5.29.08.67.17,1.23,1.09,1.34.28.03.59.06.81.06.25,0,.36.08.36.17,0,.14-.11.22-.39.22-1.46,0-3.02-.08-3.14-.08-.45,0-1.68.08-2.44.08-.28,0-.39-.06-.39-.22,0-.08.17-.17.34-.17.2,0,.39,0,.62-.06.48-.08.64-.39.73-1.06.14-1.01.11-3.3.11-5.4v-4.2ZM442.17,294.2c0,.14.03.28.14.34.36.2,1.48.36,2.49.36.59,0,1.29-.03,1.88-.42.84-.53,1.4-1.76,1.4-3.56,0-3.05-1.62-4.73-4.12-4.73-.7,0-1.29.06-1.62.14-.08.03-.17.11-.17.25v7.62Z"/>
    <path class="cls-3" d="M455.53,287.62c-.56-1.32-.76-1.65-1.76-1.82-.39-.06-.7-.08-.84-.08-.22,0-.34-.08-.34-.2,0-.14.2-.2.45-.2,1.29,0,2.91.08,3.19.08.25,0,1.57-.08,2.6-.08.34,0,.45.06.45.17,0,.14-.11.22-.42.22-.39,0-.64.06-.87.14-.25.14-.25.31-.25.48,0,.2.17.73.45,1.4l4.93,12.38c1.4-3.11,4.62-11.23,5.12-12.91.14-.36.22-.73.22-.92,0-.17-.03-.36-.25-.45s-.59-.11-.9-.11c-.2,0-.36-.06-.36-.17,0-.14.08-.22.42-.22,1.01,0,2.35.08,2.66.08.11,0,1.23-.08,1.93-.08.28,0,.42.06.42.17,0,.14-.11.22-.31.22-.34,0-.7,0-1.2.28-.31.22-.64.56-1.32,2.18-.14.34-1.54,3.56-2.8,6.44-1.48,3.47-2.63,6.1-3.11,7.06-.76,1.54-.84,1.96-1.12,1.96-.34,0-.48-.34-.95-1.57l-6.05-14.45Z"/>
    <path class="cls-3" d="M475.94,292.21c0-3.7,0-4.37-.06-5.12-.06-.76-.22-1.18-.81-1.29-.28-.06-.48-.06-.64-.08-.2-.03-.31-.08-.31-.2,0-.14.11-.2.42-.2.87,0,2.46.08,2.55.08.11,0,1.74-.08,2.52-.08.28,0,.42.06.42.2,0,.11-.08.17-.31.2-.17.03-.31.03-.5.06-.81.11-.9.53-.95,1.34-.06.76-.03,1.4-.03,5.1v4.2c0,2.16-.03,4.12.11,5.12.11.81.22,1.12.95,1.29.36.08.95.11,1.06.11.25.03.31.08.31.2s-.11.2-.39.2c-1.43,0-3.05-.08-3.19-.08-.08,0-1.74.08-2.52.08-.25,0-.45-.06-.45-.2,0-.11.11-.2.36-.2.14,0,.45-.03.67-.08.48-.11.56-.67.64-1.34.14-1.01.14-3,.14-5.1v-4.2Z"/>
    <path class="cls-3" d="M486.83,301.08c-2.38-2.07-3-4.82-3-7.14,0-1.57.62-4.34,2.83-6.47,1.51-1.46,3.78-2.49,7.53-2.49,1.29,0,2.32.11,3.7.31.9.14,1.79.28,2.46.31.22,0,.25.14.25.28,0,.22-.08.48-.14,1.37-.03.78-.03,2.24-.06,2.58-.03.39-.08.53-.22.53-.2,0-.22-.17-.22-.53,0-.81-.39-1.9-1.09-2.44-.84-.73-2.8-1.43-4.96-1.43-3.11,0-4.54.87-5.38,1.62-1.82,1.65-2.24,3.67-2.24,6.13,0,4.65,3.78,8.74,8.71,8.74,1.9,0,3.3-.2,4.28-1.15.5-.53.78-1.23.92-2.02.06-.28.14-.42.31-.42.14,0,.14.2.14.39,0,.22-.36,2.49-.56,3.11-.17.45-.25.53-.64.7-.98.42-2.86.56-4.42.56-3.7,0-6.22-.84-8.2-2.55Z"/>
    <path class="cls-3" d="M506.23,292.21c0-3.67,0-4.34-.06-5.1-.06-.78-.25-1.18-1.06-1.34-.17-.03-.45-.06-.67-.06-.2,0-.36-.08-.36-.17,0-.17.14-.22.42-.22.56,0,1.32.06,2.88.08.14,0,5.12,0,5.68-.03.56-.03.87-.06,1.09-.14.17-.06.2-.08.31-.08.06,0,.11.06.11.2,0,.17-.17.56-.22,1.26-.03.48-.06.92-.08,1.46,0,.25-.06.42-.2.42s-.2-.11-.2-.31c-.03-.42-.11-.7-.2-.9-.17-.56-.42-.76-1.82-.84-.36-.03-3.14-.06-3.19-.06-.08,0-.14.06-.14.22v6.36c0,.17.03.28.17.28.34,0,3.19-.03,3.78-.08.64-.03,1.06-.11,1.29-.42.11-.17.2-.22.31-.22.06,0,.11.03.11.17s-.11.67-.2,1.48c-.08.78-.08,1.34-.11,1.71-.03.22-.08.31-.2.31-.14,0-.17-.17-.17-.36,0-.17-.03-.45-.08-.67-.11-.36-.28-.76-1.34-.84-.64-.06-2.91-.11-3.36-.11-.17,0-.2.08-.2.2v2.04c0,.87-.03,3.33,0,3.81.06,1.04.2,1.57.78,1.82.42.2,1.09.25,2.04.25.53,0,1.43.03,2.13-.17.84-.25,1.04-.81,1.26-1.85.06-.28.14-.39.25-.39.17,0,.17.25.17.42,0,.2-.22,1.96-.31,2.44-.11.56-.31.62-1.23.62-1.85,0-2.63-.06-3.61-.06-.98-.03-2.27-.08-3.3-.08-.64,0-1.18.08-1.85.08-.25,0-.39-.06-.39-.2,0-.11.11-.2.25-.2.17,0,.36-.03.56-.08.5-.11.84-.48.9-2.21.03-.95.06-2.1.06-4.23v-4.2Z"/>
    <path class="cls-3" d="M519.73,303.02c-.36-.17-.36-.28-.36-.95,0-1.29.08-2.24.11-2.63.03-.25.08-.39.22-.39s.2.08.2.28c0,.17,0,.5.08.84.36,1.82,2.02,2.52,3.64,2.52,2.32,0,3.44-1.6,3.44-3,0-1.6-.73-2.58-2.77-4.23l-1.12-.87c-2.69-2.16-3.25-3.64-3.25-5.29,0-2.58,2.04-4.31,5.18-4.31.98,0,1.65.08,2.27.22.53.11.76.14.95.14s.25.06.25.17-.11,1.09-.11,2.72c0,.42-.06.59-.2.59s-.17-.11-.2-.31c-.03-.25-.08-.84-.34-1.32-.14-.25-.78-1.32-3.14-1.32-1.68,0-2.94,1.01-2.94,2.69,0,1.32.67,2.13,3,3.89l.64.5c2.91,2.24,3.67,3.72,3.67,5.71,0,1.01-.42,2.8-2.13,3.98-1.09.7-2.44.98-3.78.98-1.18,0-2.27-.14-3.33-.62Z"/>
  </g>
  <line class="cls-1" x1="5.4" y1="314.18" x2="523.18" y2="314.18"/>
</svg>